<svg width="512" height="512" viewBox="0 0 512 512" fill="none" xmlns="http://www.w3.org/2000/svg">
<rect width="512" height="512" rx="256" fill="#005C52"/>
<path d="M258.499 54.8105C145.757 54.8105 54.4131 144.667 54.4131 255.647C54.4131 403.657 210.918 498.47 343.909 437.986C344.132 437.468 344.355 437.135 344.54 436.618L338.606 422.264C338.087 422.042 337.753 421.931 337.234 421.709C243.962 461.477 223.749 363.778 149.243 357.859C149.132 357.415 149.132 357.452 149.021 357.008C172.756 342.84 196.491 343.395 201.572 343.58C202.017 343.247 202.314 343.062 202.722 342.729L214.997 299.484C215.331 298.411 216.073 297.486 217 296.746L235.024 283.651C235.024 283.207 235.024 283.096 234.912 282.578C219.002 272.553 218.928 256.017 219.003 252.576C219.336 252.354 219.447 252.354 219.744 252.132C225.493 254.019 231.204 254.981 236.915 254.981C249.821 254.981 261.169 250.32 271.442 243.217C281.715 236.151 291.061 226.718 299.628 217.322C337.382 175.889 352.031 178.405 352.662 179.885C354.442 183.954 356.185 188.06 357.854 192.166C360.598 198.862 361.6 205.928 362.601 213.031C363.269 217.988 362.527 222.797 360.635 227.347C358.929 231.416 356.853 235.337 354.998 239.37C354.739 239.962 354.59 240.886 354.887 241.441C357.928 247.952 360.969 254.426 364.158 260.863C366.829 266.227 369.722 271.517 372.429 276.881C372.763 277.547 372.874 278.804 372.466 279.211C371.539 280.284 370.352 281.283 369.054 281.801C365.012 283.392 360.895 284.797 356.778 286.129C355.554 286.536 355.295 287.128 355.517 288.275C356 290.864 356.444 293.454 356.778 296.08C356.852 296.635 356.741 297.486 356.37 297.782C355.221 298.67 353.96 299.373 352.662 300.039C349.695 301.592 349.621 301.592 351.994 303.96C353.181 305.181 353.774 306.438 352.736 307.955C351.92 309.176 350.993 310.249 350.103 311.396C349.25 312.431 348.285 313.43 347.507 314.54C346.06 316.612 346.469 318.868 346.914 321.088C347.952 326.415 348.582 333.628 343.539 335.515C331.819 339.843 290.245 323.677 276.56 315.613C274.409 314.355 272.518 312.69 270.961 310.693C268.476 307.437 266.325 303.812 264.73 299.706C264.545 299.077 263.766 298.966 263.246 299.41L260.057 301.629C259.649 302.036 259.426 302.591 259.426 303.22L271.739 390.339C271.739 390.857 272.259 391.301 272.704 391.301H277.154C277.562 391.301 278.007 390.968 278.229 390.45L286.908 360.005C304.079 369.734 323.994 375.32 345.207 375.32C524.298 375.32 483.058 54.8105 258.425 54.8105H258.499ZM281.382 120.584C297.181 106.638 319.952 108.858 324.958 109.561C325.403 109.561 325.478 109.967 325.181 110.3C322.548 112.224 314.389 118.772 310.012 126.281C306.712 131.978 303.152 136.529 299.221 140.006C293.101 145.407 272.518 155.839 266.362 162.202C266.139 162.424 265.62 162.313 265.62 162.017C265.398 157.023 265.398 134.753 281.382 120.584ZM221.524 142.115C232.02 119.919 257.869 112.113 263.284 110.707C263.617 110.596 263.914 110.929 263.729 111.225C261.911 114.296 255.977 125.172 254.791 135.419C253.826 142.928 252.158 149.365 249.599 154.988C246.966 160.5 243.034 165.975 237.62 171.487C230.425 178.997 225.752 190.502 224.566 193.794C224.454 194.09 223.935 194.09 223.824 193.794C221.376 188.911 210.658 164.717 221.487 142.078L221.524 142.115ZM192.931 128.168C193.227 127.835 193.672 128.057 193.672 128.501C193.561 132.311 193.672 146.258 198.234 157.023C201.609 164.828 203.5 172.042 203.945 178.923C204.465 185.804 203.611 193.202 201.497 201.452C198.531 212.735 200.348 226.607 200.978 230.306C201.089 230.75 200.645 230.935 200.348 230.75C195.564 227.458 171.421 209.479 169.418 181.364C167.415 153.767 188.703 132.2 192.968 128.205L192.931 128.168ZM216.888 282.393C210.398 283.022 172.607 285.056 147.908 259.79C123.727 234.968 126.917 197.419 127.77 190.983C127.77 190.65 128.215 190.465 128.512 190.761C131.145 194.164 142.604 207.593 155.733 214.325C165.19 219.208 172.793 224.609 178.726 230.713C184.66 236.706 189.741 244.438 194.303 253.834C200.682 267.041 213.922 278.878 217.074 281.727C217.408 281.949 217.296 282.356 216.888 282.356V282.393ZM361.08 162.942C298.034 145.074 273.89 269.26 212.512 227.828C212.216 227.606 212.104 227.088 212.401 226.866C222.266 217.581 363.491 86.9947 361.822 162.276C361.822 162.683 361.414 163.016 361.08 162.905V162.942Z" fill="white"/>
</svg>
