<svg width="200" height="56" viewBox="0 0 200 56" fill="none" xmlns="http://www.w3.org/2000/svg">
<path d="M70.1482 41.0521V19.0669H89.0903V41.0521H83.4698V24.2217H75.7687V41.0521H70.1482ZM103.192 41.3005C100.957 41.3005 99.0004 40.8348 97.3236 39.9032C95.6467 38.9716 94.3425 37.6674 93.4109 35.9906C92.5001 34.293 92.0446 32.3264 92.0446 30.0906C92.0446 27.7927 92.5208 25.8053 93.473 24.1285C94.4253 22.431 95.7502 21.1164 97.4478 20.1848C99.1453 19.2533 101.112 18.7875 103.348 18.7875C105.563 18.7875 107.509 19.2429 109.186 20.1538C110.862 21.0646 112.177 22.3585 113.129 24.0353C114.082 25.6915 114.558 27.6581 114.558 29.9353C114.558 32.1711 114.082 34.1481 113.129 35.8664C112.198 37.5639 110.873 38.8991 109.155 39.8721C107.457 40.8244 105.47 41.3005 103.192 41.3005ZM103.317 35.9906C104.642 35.9906 105.708 35.6904 106.515 35.09C107.322 34.469 107.902 33.703 108.254 32.7922C108.627 31.8813 108.813 30.9808 108.813 30.0906C108.813 29.4281 108.709 28.7553 108.502 28.0722C108.316 27.3683 108.006 26.7162 107.571 26.1159C107.157 25.5155 106.598 25.029 105.894 24.6564C105.19 24.2838 104.321 24.0974 103.286 24.0974C101.981 24.0974 100.926 24.3976 100.118 24.998C99.3109 25.5776 98.7209 26.3229 98.3483 27.2337C97.9757 28.1446 97.7893 29.0866 97.7893 30.0595C97.7893 31.0325 97.9757 31.9744 98.3483 32.8853C98.7416 33.7962 99.342 34.5414 100.149 35.1211C100.977 35.7007 102.033 35.9906 103.317 35.9906ZM115.197 41.0832V35.7732C116.046 35.7732 116.688 35.6179 117.123 35.3074C117.557 34.9969 117.858 34.5621 118.023 34.0032C118.21 33.4236 118.344 32.7507 118.427 31.9848C118.489 31.4051 118.53 30.7944 118.551 30.1527C118.572 29.5109 118.582 28.9106 118.582 28.3516C118.603 27.772 118.613 27.2959 118.613 26.9232V19.0669H134.823V41.0521H129.202V24.2838H123.799V28.5069C123.799 30.1423 123.758 31.6639 123.675 33.0716C123.613 34.4586 123.426 35.7007 123.116 36.7979C122.805 37.8744 122.277 38.7646 121.532 39.4684C120.787 40.1723 119.938 40.6174 118.986 40.8037C118.054 40.99 116.791 41.0832 115.197 41.0832ZM138.985 41.0521V19.0669H155.567V24.2838H144.606V27.6374H153.642V32.6058H144.606V35.8664H155.567V41.0521H138.985ZM157.521 41.0521L163.607 33.1648C161.93 32.5851 160.699 31.7157 159.912 30.5564C159.125 29.3971 158.732 27.979 158.732 26.3022C158.732 24.8738 158.991 23.6938 159.508 22.7622C160.026 21.8099 160.719 21.0646 161.589 20.5264C162.479 19.9882 163.483 19.6155 164.601 19.4085C165.739 19.1808 166.909 19.0669 168.11 19.0669H177.022V41.0521H171.401V34.0653H169.134L164.259 41.0521H157.521ZM167.644 29.0969H171.401V24.2838H167.551C166.971 24.2838 166.433 24.3562 165.936 24.5011C165.439 24.6253 165.036 24.8531 164.725 25.1843C164.414 25.5155 164.259 25.9813 164.259 26.5816C164.259 27.2441 164.435 27.7616 164.787 28.1343C165.139 28.4862 165.574 28.7346 166.091 28.8795C166.63 29.0244 167.147 29.0969 167.644 29.0969ZM181.197 41.0521V19.0669H190.42C192.138 19.0669 193.649 19.3154 194.954 19.8122C196.258 20.2883 197.283 21.0957 198.028 22.2343C198.773 23.3522 199.146 24.8945 199.146 26.8611C199.146 28.6622 198.752 30.163 197.966 31.3637C197.179 32.5437 196.113 33.4236 194.767 34.0032C193.422 34.5828 191.9 34.8727 190.203 34.8727H186.818V41.0521H181.197ZM186.818 29.8732H190.203C191.279 29.8732 192.118 29.6144 192.718 29.0969C193.318 28.5794 193.618 27.8444 193.618 26.8922C193.618 26.0227 193.349 25.3706 192.811 24.9359C192.293 24.5011 191.414 24.2838 190.172 24.2838H186.818V29.8732Z" fill="white"/>
<path d="M52.6776 0.568298H0V53.2459H15.1997C9.43779 49.5656 5.61728 43.1139 5.61728 35.7699C5.61728 24.3257 14.8946 15.0484 26.3388 15.0484C37.783 15.0484 47.0603 24.3257 47.0603 35.7699C47.0603 43.1139 43.2398 49.5656 37.4779 53.2459H52.6776V0.568298Z" fill="white"/>
<path d="M155.975 53.2513L157.871 48.3062H158.913L160.801 53.2513H159.857L159.528 52.3351H157.248L156.912 53.2513H155.975ZM157.528 51.5447H159.242L158.388 49.1875L157.528 51.5447ZM163.132 53.2513V48.3062H166.476V49.1036H164.007V53.2513H163.132ZM168.931 53.2513V48.3062H170.792C171.165 48.3062 171.487 48.3645 171.757 48.4811C172.032 48.593 172.244 48.7725 172.394 49.0196C172.548 49.2668 172.625 49.5909 172.625 49.9919C172.625 50.3743 172.541 50.6937 172.373 50.9501C172.205 51.2066 171.976 51.4001 171.687 51.5307C171.398 51.6566 171.067 51.7195 170.694 51.7195H169.806V53.2513H168.931ZM169.806 50.9362H170.68C171.002 50.9362 171.261 50.8592 171.456 50.7053C171.652 50.5515 171.75 50.309 171.75 49.9779C171.75 49.6888 171.669 49.472 171.505 49.3274C171.342 49.1782 171.09 49.1036 170.75 49.1036H169.806V50.9362ZM177.369 53.3073C176.861 53.3073 176.427 53.2 176.068 52.9856C175.714 52.7711 175.441 52.4726 175.25 52.0902C175.063 51.7079 174.97 51.2719 174.97 50.7823C174.97 50.2833 175.066 49.845 175.257 49.4673C175.448 49.0849 175.723 48.7865 176.082 48.572C176.441 48.3528 176.875 48.2433 177.383 48.2433C177.891 48.2433 178.323 48.3505 178.677 48.565C179.036 48.7795 179.311 49.0779 179.503 49.4603C179.694 49.838 179.789 50.274 179.789 50.7683C179.789 51.2579 179.694 51.6939 179.503 52.0763C179.316 52.4586 179.041 52.7594 178.677 52.9786C178.318 53.1977 177.882 53.3073 177.369 53.3073ZM177.383 52.4959C177.738 52.4959 178.027 52.4143 178.251 52.2511C178.474 52.0879 178.638 51.8758 178.74 51.6146C178.847 51.3535 178.901 51.076 178.901 50.7823C178.901 50.5584 178.871 50.3439 178.81 50.1388C178.754 49.9336 178.663 49.7494 178.537 49.5862C178.416 49.423 178.26 49.2948 178.069 49.2015C177.877 49.1036 177.649 49.0546 177.383 49.0546C177.033 49.0546 176.744 49.1362 176.516 49.2994C176.292 49.4626 176.127 49.6748 176.019 49.9359C175.912 50.1971 175.858 50.4792 175.858 50.7823C175.858 51.0807 175.912 51.3605 176.019 51.6216C176.127 51.8827 176.292 52.0949 176.516 52.2581C176.744 52.4167 177.033 52.4959 177.383 52.4959ZM183.294 53.2513V49.1036H181.748V48.3062H185.707V49.1036H184.161V53.2513H183.294ZM188.078 53.2513V48.3062H191.568V49.1036H188.952V50.4046H191.225V51.188H188.952V52.454H191.568V53.2513H188.078ZM193.653 53.2513L195.311 50.7753L193.709 48.3062H194.758L195.864 50.1178L196.955 48.3062H197.983L196.388 50.7683L198.039 53.2513H196.99L195.836 51.4328L194.661 53.2513H193.653Z" fill="white"/>
</svg>
