<svg width="169" height="51" viewBox="0 0 169 51" fill="none" xmlns="http://www.w3.org/2000/svg">
<path d="M25.0493 0C11.2114 0 0 11.0289 0 24.6504C0 42.8169 19.2091 54.4542 35.5324 47.0305C35.5597 46.9669 35.587 46.926 35.6098 46.8625L34.8815 45.1008C34.8178 45.0735 34.7768 45.0599 34.7131 45.0327C23.265 49.9137 20.7841 37.9222 11.6393 37.1958C11.6256 37.1413 11.6257 37.1458 11.612 37.0913C14.5252 35.3523 17.4384 35.4204 18.0621 35.4431C18.1167 35.4023 18.1531 35.3796 18.2032 35.3387L19.7099 30.0309C19.7508 29.8992 19.8419 29.7857 19.9557 29.6949L22.1679 28.0875C22.1679 28.033 22.1679 28.0194 22.1542 27.9558C20.2015 26.7254 20.1924 24.6958 20.2015 24.2735C20.2425 24.2463 20.2561 24.2463 20.2925 24.219C20.9981 24.4506 21.6991 24.5686 22.4001 24.5686C23.9841 24.5686 25.377 23.9965 26.6379 23.1248C27.8988 22.2575 29.0459 21.0997 30.0974 19.9464C34.7313 14.8611 36.5293 15.1698 36.6066 15.3514C36.8251 15.8509 37.0391 16.3549 37.2439 16.8589C37.5808 17.6807 37.7037 18.5479 37.8266 19.4197C37.9085 20.0281 37.8175 20.6184 37.5853 21.1769C37.3759 21.6763 37.121 22.1576 36.8934 22.6525C36.8615 22.7252 36.8433 22.8387 36.8797 22.9068C37.253 23.7059 37.6263 24.5005 38.0177 25.2906C38.3455 25.9489 38.7006 26.5982 39.0329 27.2566C39.0738 27.3383 39.0875 27.4927 39.0374 27.5427C38.9236 27.6743 38.7779 27.7969 38.6186 27.8605C38.1225 28.0557 37.6172 28.2283 37.1119 28.3917C36.9617 28.4417 36.9298 28.5143 36.9571 28.6551C37.0163 28.9729 37.0709 29.2908 37.1119 29.6131C37.121 29.6812 37.1073 29.7857 37.0618 29.822C36.9207 29.931 36.766 30.0172 36.6066 30.099C36.2425 30.2897 36.2334 30.2897 36.5247 30.5803C36.6704 30.7301 36.7432 30.8845 36.6157 31.0706C36.5156 31.2205 36.4018 31.3521 36.2926 31.4929C36.1879 31.62 36.0695 31.7426 35.9739 31.8788C35.7964 32.1331 35.8465 32.4101 35.9011 32.6825C36.0286 33.3363 36.1059 34.2217 35.4869 34.4533C34.0485 34.9845 28.9457 33.0003 27.2661 32.0105C27.002 31.8561 26.7699 31.6518 26.5788 31.4066C26.2738 31.0071 26.0097 30.5621 25.814 30.0581C25.7913 29.9809 25.6957 29.9673 25.6319 30.0218L25.2405 30.2942C25.1904 30.3441 25.1631 30.4123 25.1631 30.4894L26.6743 41.1823C26.6743 41.2459 26.7381 41.3004 26.7927 41.3004H27.3389C27.389 41.3004 27.4436 41.2595 27.4709 41.1959L28.5361 37.4591C30.6436 38.6533 33.088 39.3389 35.6917 39.3389C57.673 39.3389 52.6113 0 25.0402 0H25.0493ZM27.8578 8.073C29.797 6.36124 32.5918 6.63367 33.2064 6.71994C33.261 6.71994 33.2701 6.76988 33.2337 6.81075C32.9105 7.04685 31.909 7.85052 31.3719 8.77224C30.9668 9.47148 30.5298 10.03 30.0473 10.4568C29.2963 11.1197 26.7699 12.4001 26.0143 13.1811C25.987 13.2083 25.9233 13.1947 25.9233 13.1584C25.8959 12.5454 25.8959 9.81201 27.8578 8.073ZM20.511 10.7156C21.7992 7.99128 24.9719 7.03323 25.6365 6.86069C25.6774 6.84707 25.7139 6.88794 25.6911 6.92426C25.4681 7.30112 24.7397 8.63603 24.5941 9.89375C24.4757 10.8155 24.2709 11.6055 23.9568 12.2957C23.6337 12.9722 23.1511 13.6442 22.4865 14.3207C21.6034 15.2425 21.0299 16.6545 20.8843 17.0587C20.8706 17.095 20.8069 17.095 20.7932 17.0587C20.4928 16.4593 19.1773 13.4898 20.5064 10.711L20.511 10.7156ZM17.0015 9.00381C17.0379 8.96294 17.0925 8.99018 17.0925 9.04467C17.0788 9.51234 17.0925 11.2241 17.6524 12.5454C18.0666 13.5034 18.2988 14.3888 18.3534 15.2334C18.4171 16.0779 18.3124 16.986 18.0529 17.9985C17.6888 19.3834 17.9118 21.0861 17.9892 21.5401C18.0029 21.5946 17.9483 21.6173 17.9119 21.5946C17.3247 21.1905 14.3614 18.9838 14.1156 15.533C13.8698 12.1458 16.4826 9.49872 17.006 9.00835L17.0015 9.00381ZM19.942 27.9331C19.1454 28.0103 14.507 28.2601 11.4754 25.1589C8.50755 22.1122 8.89899 17.5036 9.00369 16.7136C9.00369 16.6727 9.05834 16.65 9.09476 16.6863C9.41795 17.1041 10.8245 18.7523 12.4359 19.5786C13.5966 20.178 14.5297 20.8409 15.258 21.5901C15.9864 22.3256 16.61 23.2746 17.1699 24.4279C17.9528 26.0488 19.5779 27.5018 19.9648 27.8514C20.0058 27.8787 19.9921 27.9286 19.942 27.9286V27.9331ZM37.6399 13.2719C29.9016 11.0788 26.9384 26.3213 19.4049 21.2359C19.3685 21.2087 19.3548 21.1451 19.3912 21.1179C20.6021 19.9782 37.9358 3.95023 37.731 13.1901C37.731 13.2401 37.6809 13.281 37.6399 13.2673V13.2719Z" fill="white"/>
<path d="M61.1552 24.9046C61.1552 15.7918 66.9088 11.2104 74.7336 11.2104C82.5584 11.2104 87.5519 16.1414 87.5519 24.4006C87.5519 24.9545 87.5018 25.8581 87.4017 26.412H66.8588C67.2639 31.4474 70.4912 34.2171 74.6835 34.2171C77.2554 34.2171 79.6816 33.0593 80.8423 30.9434H86.4958C84.98 35.7246 80.4372 38.5987 74.7336 38.5987C66.3535 38.5987 61.1552 33.4135 61.1552 24.9046ZM81.6981 22.4346C81.2429 18.003 78.2159 15.5375 74.4787 15.5375C70.7416 15.5375 67.6144 17.9531 67.009 22.4346H81.6981Z" fill="white"/>
<path d="M91.5895 37.8906V4.56787H97.293V37.8906H91.5895Z" fill="white"/>
<path d="M102.336 37.8906V4.56787H108.04V37.8906H102.336Z" fill="white"/>
<path d="M112.078 24.9046C112.078 15.7918 117.831 11.2104 125.656 11.2104C133.481 11.2104 138.474 16.1414 138.474 24.4006C138.474 24.9545 138.424 25.8581 138.324 26.412H117.781C118.186 31.4474 121.414 34.2171 125.606 34.2171C128.178 34.2171 130.604 33.0593 131.765 30.9434H137.418C135.902 35.7246 131.364 38.5987 125.661 38.5987C117.28 38.5987 112.082 33.4135 112.082 24.9046H112.078ZM132.62 22.4346C132.165 18.003 129.138 15.5375 125.401 15.5375C121.664 15.5375 118.537 17.9531 117.931 22.4346H132.62Z" fill="white"/>
<path d="M142.507 37.8904V11.9142H147.706L148.211 15.642H148.716C150.787 12.5726 153.764 11.2104 157.802 11.2104C163.505 11.2104 168.349 14.4841 168.349 22.8387V37.8904H162.645V23.2927C162.645 18.4071 160.123 16.0415 156.086 16.0415C151.443 16.0415 148.211 19.011 148.211 24.4006V37.8904H142.507Z" fill="white"/>
<path d="M125.571 45.2799C125.411 45.1846 125.243 45.121 125.079 45.0937C124.897 45.062 124.756 45.0483 124.638 45.0483C124.437 45.0483 124.233 45.0756 124.023 45.1301C123.818 45.1846 123.623 45.2799 123.445 45.4207C123.267 45.5614 123.126 45.7521 123.022 45.9973L123.003 46.0382L123.654 46.2697L123.673 46.2334C123.736 46.0972 123.85 45.9701 124.005 45.8475C124.16 45.7294 124.378 45.6704 124.656 45.6704C124.934 45.6704 125.12 45.734 125.248 45.8656C125.375 45.9973 125.439 46.1789 125.439 46.4196V46.4377C125.439 46.5195 125.411 46.574 125.357 46.6057C125.293 46.6421 125.188 46.6693 125.047 46.6829C124.902 46.6965 124.72 46.7192 124.487 46.751H124.46C124.296 46.7737 124.114 46.8055 123.914 46.8509C123.727 46.8918 123.563 46.9508 123.413 47.0325C123.258 47.1143 123.135 47.2323 123.04 47.3776C122.949 47.5229 122.899 47.7136 122.899 47.9452C122.899 48.2085 122.962 48.4356 123.085 48.6217C123.208 48.8079 123.381 48.9532 123.586 49.0485C123.791 49.1439 124.028 49.1938 124.283 49.1938C124.519 49.1938 124.72 49.1575 124.879 49.0848C125.043 49.0167 125.175 48.9305 125.275 48.8306C125.339 48.7625 125.393 48.6989 125.434 48.6353V49.0985H126.126V46.4741C126.126 46.1608 126.072 45.902 125.967 45.7113C125.862 45.5206 125.73 45.3753 125.566 45.2799H125.571ZM125.439 47.1733V47.641C125.439 47.7954 125.398 47.9406 125.316 48.0859C125.234 48.2267 125.116 48.3447 124.961 48.431C124.802 48.5218 124.606 48.5672 124.378 48.5672C124.151 48.5672 123.955 48.5173 123.809 48.4174C123.668 48.3175 123.595 48.1768 123.595 47.9815C123.595 47.8362 123.632 47.7272 123.709 47.6455C123.786 47.5592 123.891 47.4957 124.019 47.4548C124.155 47.4094 124.301 47.3776 124.446 47.3595H124.46C124.524 47.3504 124.601 47.3413 124.697 47.3277H124.729C124.824 47.3095 124.924 47.3004 125.025 47.2823C125.147 47.2641 125.243 47.2459 125.325 47.2187C125.37 47.2051 125.407 47.1915 125.434 47.1778L125.439 47.1733Z" fill="white"/>
<path d="M130.564 45.7109C130.523 45.6519 130.469 45.5701 130.391 45.4748C130.309 45.3658 130.186 45.2659 130.032 45.1751C129.877 45.0889 129.663 45.0435 129.403 45.0435C129.067 45.0435 128.766 45.1297 128.507 45.2977C128.247 45.4657 128.042 45.7064 127.901 46.0106C127.76 46.3148 127.683 46.6735 127.683 47.0821C127.683 47.4908 127.76 47.8495 127.906 48.1401C128.056 48.4352 128.261 48.6577 128.516 48.8121C128.771 48.9664 129.062 49.0436 129.39 49.0436C129.658 49.0436 129.863 49.0028 130.022 48.9165C130.177 48.8302 130.3 48.7349 130.382 48.6259C130.441 48.5533 130.496 48.4761 130.546 48.4034V49.1299C130.546 49.4432 130.45 49.6702 130.255 49.8155C130.054 49.9608 129.799 50.038 129.494 50.038C129.267 50.038 129.08 50.0062 128.939 49.9381C128.803 49.87 128.689 49.7928 128.607 49.7065C128.525 49.6157 128.457 49.534 128.402 49.4659L128.375 49.4341L127.828 49.8155L127.851 49.8518C127.938 49.9926 128.051 50.1243 128.193 50.2469C128.338 50.3695 128.516 50.4693 128.73 50.542C128.944 50.6192 129.194 50.6555 129.494 50.6555C129.795 50.6555 130.104 50.6056 130.364 50.5057C130.632 50.4012 130.837 50.2423 130.997 50.0198C131.151 49.8019 131.233 49.5158 131.233 49.1708V45.0979H130.564V45.7109ZM130.432 46.3375C130.519 46.5509 130.555 46.787 130.555 47.0685C130.555 47.35 130.514 47.5907 130.432 47.795C130.346 47.9948 130.227 48.1491 130.068 48.2536C129.909 48.358 129.717 48.4125 129.476 48.4125C129.235 48.4125 129.03 48.358 128.871 48.2445C128.707 48.131 128.584 47.9721 128.502 47.7768C128.416 47.568 128.379 47.3409 128.379 47.0731C128.379 46.8052 128.42 46.5736 128.502 46.3647C128.584 46.1559 128.707 45.9833 128.871 45.8607C129.03 45.7381 129.235 45.6791 129.481 45.6791C129.727 45.6791 129.918 45.7381 130.073 45.8562C130.232 45.9697 130.355 46.1332 130.437 46.342L130.432 46.3375Z" fill="white"/>
<path d="M134.834 45.0393C134.766 45.0393 134.711 45.0393 134.666 45.0393C134.42 45.0393 134.201 45.1029 134.006 45.2255C133.842 45.3299 133.723 45.4616 133.641 45.6205V45.0984H132.972V49.0986H133.664V46.574C133.664 46.406 133.705 46.2562 133.787 46.1245C133.869 45.9929 133.978 45.8884 134.124 45.8112C134.265 45.7386 134.429 45.6977 134.611 45.6977C134.688 45.6977 134.761 45.7023 134.834 45.7113C134.902 45.7204 134.948 45.7295 134.971 45.7386L135.025 45.7522V45.0393H134.984C134.948 45.0303 134.898 45.0303 134.834 45.0303V45.0393Z" fill="white"/>
<path d="M136.723 43.627C136.591 43.627 136.482 43.6723 136.391 43.7586C136.3 43.8449 136.249 43.9539 136.249 44.0765C136.249 44.1991 136.295 44.3126 136.391 44.3943C136.482 44.4806 136.591 44.526 136.723 44.526C136.855 44.526 136.964 44.4806 137.055 44.3943C137.146 44.308 137.196 44.1991 137.196 44.0765C137.196 43.9539 137.151 43.8449 137.055 43.7586C136.964 43.6723 136.855 43.627 136.723 43.627Z" fill="white"/>
<path d="M137.064 45.0981H136.372V49.0983H137.064V45.0981Z" fill="white"/>
<path d="M140.661 46.8643L140.078 46.7236C139.855 46.6646 139.686 46.5965 139.582 46.5147C139.482 46.4375 139.436 46.3286 139.436 46.1924C139.436 46.038 139.509 45.9154 139.654 45.811C139.805 45.7065 139.991 45.652 140.228 45.652C140.396 45.652 140.533 45.6793 140.638 45.7292C140.747 45.7837 140.829 45.8518 140.893 45.929C140.952 46.0062 141.002 46.0925 141.034 46.1833L141.047 46.2196L141.671 46.0425L141.657 45.9971C141.562 45.7111 141.398 45.4795 141.17 45.3024C140.938 45.1299 140.62 45.0391 140.228 45.0391C139.95 45.0391 139.695 45.089 139.468 45.1889C139.24 45.2933 139.067 45.4295 138.94 45.6021C138.808 45.7837 138.744 45.9835 138.744 46.215C138.744 46.4966 138.831 46.7327 139.008 46.9188C139.186 47.105 139.459 47.2412 139.818 47.3275L140.474 47.4773C140.66 47.5227 140.802 47.5908 140.893 47.6771C140.979 47.7634 141.02 47.8633 141.02 47.9904C141.02 48.1448 140.947 48.2764 140.788 48.3854C140.633 48.4989 140.415 48.5579 140.142 48.5579C139.905 48.5579 139.714 48.508 139.568 48.4081C139.427 48.3082 139.327 48.1538 139.272 47.9586L139.263 47.9177L138.608 48.0767L138.617 48.1175C138.69 48.4626 138.862 48.7305 139.136 48.9076C139.404 49.0846 139.746 49.1755 140.155 49.1755C140.465 49.1755 140.738 49.1255 140.975 49.0211C141.211 48.9166 141.398 48.7668 141.53 48.5852C141.662 48.4036 141.73 48.1902 141.73 47.9586C141.73 47.6725 141.639 47.4364 141.457 47.2548C141.28 47.0777 141.011 46.9415 140.651 46.8553L140.661 46.8643Z" fill="white"/>
<path d="M145.813 47.904C145.781 48.0402 145.722 48.1537 145.636 48.2536C145.549 48.3489 145.445 48.4261 145.326 48.4761C145.208 48.526 145.071 48.5533 144.917 48.5533C144.689 48.5533 144.489 48.4942 144.32 48.3762C144.152 48.2581 144.02 48.0901 143.924 47.8722C143.833 47.6542 143.783 47.3954 143.783 47.1003C143.783 46.8052 143.829 46.5554 143.924 46.342C144.02 46.1332 144.147 45.9697 144.32 45.8471C144.493 45.7336 144.689 45.6746 144.912 45.6746C145.167 45.6746 145.367 45.7427 145.517 45.8698C145.672 46.006 145.768 46.1559 145.809 46.3239L145.818 46.3557H146.505L146.496 46.3057C146.464 46.0514 146.373 45.829 146.223 45.6428C146.082 45.4566 145.891 45.3068 145.663 45.2024C145.431 45.0979 145.176 45.0435 144.898 45.0435C144.539 45.0435 144.216 45.1343 143.947 45.3113C143.678 45.4884 143.464 45.7336 143.314 46.0469C143.164 46.3557 143.091 46.7189 143.091 47.1185C143.091 47.518 143.164 47.8722 143.31 48.1809C143.455 48.4942 143.669 48.7394 143.938 48.9165C144.211 49.0936 144.539 49.1844 144.912 49.1844C145.208 49.1844 145.472 49.1299 145.695 49.0164C145.918 48.9074 146.105 48.7576 146.241 48.5669C146.378 48.3807 146.464 48.1628 146.501 47.9267L146.51 47.8767H145.822L145.813 47.9085V47.904Z" fill="white"/>
<path d="M148.708 45.0981H148.016V49.0983H148.708V45.0981Z" fill="white"/>
<path d="M148.367 43.627C148.235 43.627 148.126 43.6723 148.035 43.7586C147.943 43.8449 147.893 43.9539 147.893 44.0765C147.893 44.1991 147.939 44.3126 148.035 44.3943C148.126 44.4806 148.235 44.526 148.367 44.526C148.499 44.526 148.608 44.4806 148.699 44.3943C148.79 44.308 148.84 44.1991 148.84 44.0765C148.84 43.9539 148.795 43.8449 148.699 43.7586C148.608 43.6723 148.499 43.627 148.367 43.627Z" fill="white"/>
<path d="M153.251 45.4933C153.087 45.3344 152.896 45.2209 152.691 45.1528C152.482 45.0847 152.272 45.0483 152.072 45.0483C151.712 45.0483 151.389 45.1392 151.121 45.3162C150.852 45.4888 150.638 45.7385 150.488 46.0518C150.338 46.3606 150.265 46.7238 150.265 47.1324C150.265 47.5411 150.342 47.8998 150.488 48.2085C150.638 48.5127 150.857 48.7579 151.134 48.9305C151.417 49.0985 151.753 49.1893 152.136 49.1893C152.404 49.1893 152.65 49.1439 152.869 49.0622C153.083 48.9804 153.269 48.8578 153.419 48.7034C153.574 48.5445 153.679 48.372 153.738 48.1677L153.752 48.1268L153.128 47.9497L153.092 47.9406L153.078 47.977C153.028 48.1086 152.96 48.2131 152.873 48.3039C152.787 48.3902 152.677 48.4537 152.555 48.4946C152.432 48.54 152.291 48.5581 152.14 48.5581C151.908 48.5581 151.699 48.5082 151.521 48.4083C151.348 48.3084 151.207 48.154 151.107 47.9588C151.034 47.809 150.993 47.6183 150.98 47.3549H153.811V47.0552C153.811 46.6875 153.761 46.3696 153.661 46.1154C153.561 45.8566 153.429 45.6522 153.26 45.4979L153.251 45.4933ZM150.975 46.7374C150.989 46.5512 151.025 46.4059 151.084 46.2834C151.175 46.1017 151.307 45.9519 151.471 45.8384C151.64 45.7249 151.835 45.6704 152.072 45.6704C152.281 45.6704 152.463 45.7158 152.618 45.8157C152.778 45.9156 152.891 46.0427 152.973 46.2062C153.055 46.3696 153.096 46.5422 153.101 46.7329H150.975V46.7374Z" fill="white"/>
<path d="M157.899 45.2115C157.689 45.1025 157.448 45.0435 157.179 45.0435C156.879 45.0435 156.624 45.107 156.428 45.2342C156.255 45.3477 156.119 45.4975 156.023 45.6746V45.0979H155.354V49.0981H156.046V46.7007C156.046 46.4828 156.087 46.2921 156.169 46.1377C156.251 45.9833 156.365 45.8698 156.506 45.7926C156.647 45.7109 156.815 45.67 157.002 45.67C157.266 45.67 157.48 45.7518 157.63 45.9152C157.78 46.0787 157.858 46.3103 157.858 46.6054V49.0981H158.549V46.5691C158.549 46.2331 158.49 45.947 158.376 45.72C158.267 45.4975 158.103 45.325 157.894 45.2115H157.899Z" fill="white"/>
<path d="M162.824 47.904C162.792 48.0402 162.733 48.1537 162.646 48.2536C162.56 48.3489 162.455 48.4261 162.337 48.4761C162.218 48.526 162.082 48.5533 161.927 48.5533C161.7 48.5533 161.499 48.4942 161.331 48.3762C161.162 48.2581 161.03 48.0901 160.935 47.8722C160.844 47.6542 160.794 47.3954 160.794 47.1003C160.794 46.8052 160.839 46.5554 160.935 46.342C161.03 46.1286 161.158 45.9697 161.331 45.8471C161.499 45.7336 161.7 45.6746 161.923 45.6746C162.177 45.6746 162.378 45.7427 162.528 45.8698C162.683 46.006 162.778 46.1559 162.819 46.3239L162.828 46.3557H163.516L163.507 46.3057C163.475 46.0514 163.384 45.829 163.234 45.6428C163.092 45.4566 162.901 45.3068 162.674 45.2024C162.441 45.0979 162.187 45.0435 161.909 45.0435C161.549 45.0435 161.226 45.1343 160.958 45.3113C160.689 45.4884 160.475 45.7336 160.325 46.0469C160.175 46.3557 160.102 46.7189 160.102 47.1185C160.102 47.518 160.175 47.8722 160.32 48.1809C160.466 48.4942 160.68 48.7394 160.948 48.9165C161.222 49.0936 161.549 49.1844 161.923 49.1844C162.218 49.1844 162.482 49.1299 162.705 49.0164C162.929 48.9074 163.115 48.7576 163.252 48.5669C163.388 48.3807 163.475 48.1628 163.511 47.9267L163.52 47.8767H162.833L162.824 47.9085V47.904Z" fill="white"/>
<path d="M167.831 45.4933C167.667 45.3344 167.476 45.2209 167.271 45.1528C167.062 45.0847 166.852 45.0483 166.652 45.0483C166.292 45.0483 165.969 45.1392 165.701 45.3162C165.432 45.4888 165.218 45.7385 165.068 46.0518C164.918 46.3606 164.845 46.7238 164.845 47.1324C164.845 47.5411 164.922 47.8998 165.068 48.2085C165.218 48.5127 165.437 48.7579 165.714 48.9305C165.996 49.0985 166.333 49.1893 166.716 49.1893C166.984 49.1893 167.23 49.1439 167.449 49.0622C167.663 48.9804 167.849 48.8578 167.999 48.7034C168.154 48.5445 168.259 48.372 168.318 48.1677L168.332 48.1268L167.708 47.9497L167.672 47.9406L167.658 47.977C167.608 48.1086 167.54 48.2131 167.453 48.3039C167.367 48.3902 167.257 48.4537 167.134 48.4946C167.012 48.54 166.87 48.5581 166.72 48.5581C166.488 48.5581 166.279 48.5082 166.101 48.4083C165.928 48.3084 165.787 48.154 165.687 47.9588C165.614 47.809 165.573 47.6183 165.56 47.3549H168.391V47.0552C168.391 46.6875 168.341 46.3696 168.241 46.1154C168.14 45.8566 168.008 45.6522 167.84 45.4979L167.831 45.4933ZM165.555 46.7374C165.569 46.5512 165.605 46.4059 165.664 46.2834C165.755 46.1017 165.887 45.9519 166.051 45.8384C166.22 45.7249 166.415 45.6704 166.652 45.6704C166.861 45.6704 167.043 45.7158 167.198 45.8157C167.358 45.9156 167.471 46.0427 167.553 46.2062C167.635 46.3696 167.676 46.5422 167.681 46.7329H165.555V46.7374Z" fill="white"/>
</svg>
